<svg width="206" height="112" viewBox="0 0 206 112" fill="none" xmlns="http://www.w3.org/2000/svg">
<path d="M165.369 85.2463C165.369 85.2463 159.787 88.6141 156.01 90.6844C152.234 92.7547 147.164 93.3948 147.08 94.0522C146.995 94.7096 141.326 110.868 141.326 110.868H196.111C196.111 110.868 191.991 102.651 191.045 99.6229C190.098 96.5954 190.101 94.8596 189.327 94.5309C188.552 94.2022 178.335 89.2716 173.527 86.3968L165.369 85.2463Z" fill="white" stroke="#263238" stroke-width="0.562842" stroke-miterlimit="10"/>
<path d="M149.141 93.17L154.343 110.868H181.692L189.83 95.1192C189.751 94.864 189.57 94.6487 189.327 94.5195C188.555 94.1908 178.335 89.2602 173.527 86.3854L165.368 85.2321C165.368 85.2321 159.787 88.6143 156.01 90.6846C153.728 91.91 150.98 92.6395 149.141 93.17Z" fill="#1E56A0" stroke="#263238" stroke-width="0.562842" stroke-linecap="round" stroke-linejoin="round"/>
<path d="M165.368 85.2463C165.368 85.2463 163.352 86.4631 160.923 87.8818C160.792 88.4532 160.691 89.0306 160.621 89.6118C159.844 95.8342 162.767 101.284 167.15 101.785C171.532 102.287 175.715 97.6507 176.493 91.4283C176.632 90.3261 176.654 89.2132 176.559 88.1067C175.438 87.4954 174.401 86.9158 173.545 86.3997L165.368 85.2463Z" fill="white" stroke="#263238" stroke-width="0.562842" stroke-miterlimit="10"/>
<path d="M165.115 78.1821L163.054 88.1212C163.054 88.1212 163.997 99.13 167.52 99.2136C171.044 99.2972 174.986 88.3778 174.986 88.3778L175.158 79.67L165.115 78.1821Z" fill="#BABABA" stroke="#263238" stroke-width="0.562842" stroke-linecap="round" stroke-linejoin="round"/>
<path d="M175.155 79.7938L172.915 80.5493L168.114 82.6368L175.013 87.1061L175.155 79.7938Z" fill="#263238" stroke="#263238" stroke-width="0.562842" stroke-miterlimit="10"/>
<path d="M193.365 58.7105C193.365 57.433 193.003 56.1794 192.317 55.0832C191.632 53.9869 190.648 53.0891 189.471 52.4853C188.839 50.9994 187.694 49.7656 186.226 48.9896C184.759 48.2135 183.057 47.9422 181.406 48.2207C180.871 47.1065 180.018 46.1589 178.946 45.4864C177.875 44.814 176.627 44.4437 175.345 44.4182C174.064 44.3926 172.8 44.7127 171.7 45.3418C170.6 45.971 169.707 46.8837 169.124 47.9757C167.795 47.2736 166.267 46.9931 164.761 47.1746C163.254 47.356 161.847 47.99 160.741 48.9854C159.635 49.9807 158.888 51.286 158.607 52.7134C158.326 54.1408 158.526 55.6167 159.178 56.9286C157.994 56.6027 156.726 56.7083 155.619 57.2247C154.511 57.7412 153.644 58.632 153.183 59.7249C152.722 60.8179 152.702 62.0354 153.125 63.1421C153.548 64.2489 154.384 65.1663 155.473 65.7172C155.166 66.299 154.995 66.9376 154.97 67.5891C154.946 68.2405 155.069 68.8892 155.332 69.4907C155.594 70.0921 155.99 70.632 156.492 71.0732C156.993 71.5143 157.589 71.8463 158.237 72.0462C158.114 72.5927 158.113 73.1579 158.233 73.7049C158.353 74.252 158.592 74.7688 158.935 75.2217C159.277 75.6745 159.716 76.0534 160.221 76.3336C160.727 76.6138 161.289 76.7891 161.87 76.8481C162.451 76.9071 163.038 76.8484 163.594 76.676C164.15 76.5035 164.662 76.2211 165.096 75.8471C165.53 75.4731 165.877 75.0158 166.115 74.5051C166.352 73.9943 166.475 73.4414 166.474 72.8824C166.475 71.8676 166.068 70.8913 165.338 70.1547L166.303 62.1619L176.779 62.9837L175.55 73.8772C175.373 74.529 175.354 75.2107 175.494 75.8706C175.634 76.5305 175.929 77.1513 176.357 77.6859C176.785 78.2206 177.334 78.6552 177.963 78.9567C178.592 79.2582 179.285 79.4187 179.989 79.4261C180.693 79.4336 181.389 79.2877 182.025 78.9996C182.661 78.7114 183.221 78.2886 183.661 77.7631C184.101 77.2376 184.41 76.6232 184.565 75.9664C184.72 75.3097 184.717 74.6277 184.555 73.9723C185.62 73.9025 186.648 73.5716 187.541 73.0113C188.433 72.4511 189.159 71.6804 189.65 70.7736C190.141 69.8668 190.379 68.8543 190.342 67.8339C190.305 66.8134 189.993 65.8193 189.438 64.9473C190.623 64.3465 191.614 63.4487 192.306 62.35C192.998 61.2513 193.364 59.9932 193.365 58.7105Z" fill="#263238" stroke="#263238" stroke-width="0.562842" stroke-miterlimit="10"/>
<path d="M162.704 69.4741C162.704 69.4741 161.074 66.014 159.871 68.8167C158.668 71.6194 160.896 73.6723 162.451 74.4855C164.006 75.2986 162.704 69.4741 162.704 69.4741Z" fill="#BABABA" stroke="#263238" stroke-width="0.562842" stroke-linecap="round" stroke-linejoin="round"/>
<path d="M180.185 71.1466C180.185 71.1466 182.214 67.897 183.079 70.8006C183.944 73.7042 181.478 75.5063 179.845 76.1522C178.211 76.7981 180.185 71.1466 180.185 71.1466Z" fill="#BABABA" stroke="#263238" stroke-width="0.562842" stroke-linecap="round" stroke-linejoin="round"/>
<path d="M162.364 67.4212C162.364 67.4212 162.279 74.8142 163.394 76.8672C164.509 78.9202 168.461 84.341 170.95 84.0959C173.44 83.8508 177.048 80.235 177.994 78.8395C178.412 78.2643 178.785 77.66 179.109 77.0316L180.918 69.3098C180.918 69.3098 180.146 68.7332 180.23 67.2569C180.31 66.3039 180.603 65.3785 181.089 64.5436C180.731 64.383 180.419 64.1417 180.18 63.8404C179.94 63.539 179.781 63.1867 179.715 62.8136C179.609 62.0236 179.552 61.2283 179.543 60.4319C179.543 60.4319 176.11 59.5265 174.221 56.9718C174.221 56.9718 171.3 58.7797 168.982 57.6292C168.982 57.6292 166.921 61.0893 164.859 60.5876C164.853 60.602 165.884 66.6802 162.364 67.4212Z" fill="#BABABA" stroke="#263238" stroke-width="0.562842" stroke-linecap="round" stroke-linejoin="round"/>
<path d="M166.571 65.1203C166.571 65.1203 169.585 63.3125 171.038 65.697" stroke="#263238" stroke-width="0.562842" stroke-miterlimit="10"/>
<path d="M174.471 66.8445L177.907 67.0925" stroke="#263238" stroke-width="0.562842" stroke-miterlimit="10"/>
<path d="M168.633 68.7706C168.633 69.3819 168.382 69.8779 168.075 69.8779C167.768 69.8779 167.526 69.3877 167.526 68.7706C167.526 68.1536 167.774 67.6605 168.084 67.6605C168.395 67.6605 168.633 68.1622 168.633 68.7706Z" fill="#263238" stroke="#263238" stroke-width="0.562842" stroke-miterlimit="10"/>
<path d="M176.686 70.0654C176.517 70.6565 176.143 71.0746 175.845 70.9967C175.547 70.9189 175.441 70.3797 175.607 69.7857C175.773 69.1917 176.149 68.7794 176.448 68.8544C176.746 68.9293 176.852 69.4743 176.686 70.0654Z" fill="#263238" stroke="#263238" stroke-width="0.562842" stroke-miterlimit="10"/>
<path d="M169.92 72.2683L169.404 73.8282L173.612 74.1569L173.443 73.0065" stroke="#263238" stroke-width="0.562842" stroke-miterlimit="10"/>
<path d="M170.091 77.2795L171.981 77.5246" stroke="#263238" stroke-width="0.562842" stroke-miterlimit="10"/>
<path d="M163.822 84.0151L161.848 95.5862L148.538 110.632H158.843L165.025 97.2412C165.025 97.2412 166.487 96.5031 167.174 95.8457C167.861 95.1883 168.717 93.539 168.717 93.539C168.717 93.539 168.373 94.8538 169.148 95.5919C169.923 96.3301 170.779 96.085 170.779 95.6756C170.779 95.2661 170.607 93.8677 170.694 92.9623C170.782 92.0569 171.9 88.2797 171.297 87.5415C170.694 86.8034 166.23 86.9648 166.23 86.9648L166.059 85.402C166.059 85.402 171.213 84.8254 171.556 84.0065C171.9 83.1876 172.159 82.6916 170.782 82.7753C169.404 82.8589 167.864 82.6109 166.146 83.0204C164.428 83.4298 164.166 83.2741 163.822 84.0151Z" fill="#BABABA" stroke="#263238" stroke-width="0.562842" stroke-linecap="round" stroke-linejoin="round"/>
<path d="M165.54 88.8623C165.54 88.8623 168.732 88.3779 169.404 88.3779C170.076 88.3779 171.122 89.1161 171.122 89.1161" stroke="#263238" stroke-width="0.562842" stroke-miterlimit="10"/>
<path d="M165.628 91.2438C165.628 91.2438 168.717 90.177 169.663 90.0126C170.61 89.8482 170.95 91.166 170.95 91.166" stroke="#263238" stroke-width="0.562842" stroke-miterlimit="10"/>
<path d="M166.227 86.9736L165.025 87.3831" stroke="#263238" stroke-width="0.562842" stroke-miterlimit="10"/>
<path d="M195.071 27.518C195.074 25.8943 194.426 24.3316 193.26 23.1515C192.094 21.9714 190.5 21.2638 188.805 21.1745C189.084 20.0762 189.05 18.9268 188.708 17.845C188.367 16.7632 187.729 15.7884 186.862 15.0213C185.994 14.2543 184.928 13.7229 183.774 13.4821C182.62 13.2414 181.419 13.2999 180.297 13.6517C180.01 12.3788 179.322 11.2207 178.326 10.334C177.329 9.44722 176.072 8.87457 174.724 8.69343C173.376 8.51228 172.003 8.73138 170.79 9.32111C169.576 9.91084 168.581 10.8428 167.939 11.9909C167.214 10.9349 166.175 10.1104 164.956 9.62299C163.737 9.13563 162.394 9.00767 161.098 9.25552C159.803 9.50337 158.615 10.1157 157.685 11.0141C156.756 11.9124 156.129 13.0558 155.883 14.2976C154.398 14.8336 153.162 15.8601 152.399 17.1916C151.636 18.523 151.395 20.0718 151.721 21.558C150.385 22.5013 149.468 23.8897 149.15 25.4489C148.833 27.0081 149.138 28.6245 150.006 29.9786C150.874 31.3326 152.242 32.3259 153.838 32.7619C155.435 33.1979 157.145 33.0449 158.629 32.3333C158.698 33.2772 158.987 34.1945 159.474 35.0178C159.962 35.8411 160.636 36.5497 161.447 37.0915C162.258 37.6334 163.185 37.9948 164.161 38.1494C165.137 38.3039 166.136 38.2477 167.086 37.9847C167.336 39.2665 167.993 40.4435 168.967 41.3554C169.942 42.2673 171.186 42.8699 172.531 43.081C173.876 43.2922 175.256 43.1017 176.484 42.5354C177.712 41.9692 178.727 41.0548 179.393 39.9166C180.403 40.3287 181.504 40.4944 182.598 40.3987C183.691 40.303 184.743 39.949 185.658 39.3684C186.573 38.7878 187.323 37.9989 187.841 37.0724C188.359 36.146 188.628 35.111 188.624 34.0604C188.624 33.997 188.624 33.9335 188.624 33.8701C190.352 33.8243 191.994 33.1346 193.198 31.948C194.402 30.7614 195.074 29.1718 195.071 27.518Z" fill="#263238" stroke="#263238" stroke-width="0.562842" stroke-linecap="round" stroke-linejoin="round"/>
<path d="M163.063 41.5111C164.899 41.5111 166.387 40.4538 166.387 39.1496C166.387 37.8454 164.899 36.7881 163.063 36.7881C161.227 36.7881 159.738 37.8454 159.738 39.1496C159.738 40.4538 161.227 41.5111 163.063 41.5111Z" fill="#263238" stroke="#263238" stroke-width="0.562842" stroke-linecap="round" stroke-linejoin="round"/>
<path d="M163.021 44.7461C163.021 45.6573 161.981 46.3926 160.703 46.3926C159.425 46.3926 158.385 45.6573 158.385 44.7461C158.385 43.835 159.422 43.0997 160.703 43.0997C161.984 43.0997 163.021 43.8379 163.021 44.7461Z" fill="#263238" stroke="#263238" stroke-width="0.562842" stroke-linecap="round" stroke-linejoin="round"/>
<path d="M194.203 25.6524C194.206 24.0292 193.558 22.4668 192.393 21.2868C191.228 20.1068 189.634 19.3989 187.94 19.3089C188.219 18.2106 188.185 17.0611 187.843 15.9793C187.502 14.8976 186.864 13.9227 185.997 13.1557C185.129 12.3887 184.063 11.8573 182.909 11.6165C181.755 11.3757 180.554 11.4343 179.432 11.7861C179.144 10.5143 178.455 9.35751 177.459 8.47185C176.462 7.58619 175.205 7.01426 173.858 6.83322C172.511 6.65219 171.139 6.87074 169.926 7.45942C168.713 8.0481 167.717 8.97856 167.074 10.1253C166.349 9.06929 165.31 8.24473 164.091 7.75737C162.872 7.27001 161.529 7.14205 160.233 7.3899C158.938 7.63775 157.75 8.25011 156.82 9.14846C155.891 10.0468 155.264 11.1902 155.018 12.432C153.532 12.965 152.294 13.9906 151.531 15.3224C150.768 16.6542 150.529 18.2038 150.859 19.6895C149.519 20.6312 148.597 22.0203 148.277 23.5816C147.957 25.1428 148.262 26.7622 149.131 28.1185C150 29.4748 151.371 30.4691 152.97 30.9042C154.57 31.3394 156.282 31.1835 157.767 30.4676C157.885 32.0719 158.635 33.5735 159.866 34.6688C161.097 35.764 162.717 36.371 164.398 36.3671C165.017 36.3666 165.633 36.2822 166.227 36.1162C166.477 37.3982 167.133 38.5755 168.108 39.4878C169.082 40.4001 170.326 41.003 171.671 41.2144C173.016 41.4259 174.397 41.2357 175.624 40.6696C176.852 40.1035 177.868 39.1892 178.534 38.051C179.544 38.4565 180.644 38.617 181.735 38.518C182.827 38.4191 183.875 38.0639 184.789 37.4838C185.702 36.9038 186.451 36.117 186.97 35.1933C187.489 34.2696 187.761 33.2376 187.762 32.189C187.762 32.1227 187.762 32.0622 187.762 31.9987C189.488 31.9514 191.127 31.2619 192.33 30.0767C193.533 28.8915 194.205 27.3043 194.203 25.6524Z" fill="white" stroke="#263238" stroke-width="0.562842" stroke-miterlimit="10"/>
<path d="M165.522 37.2812C165.522 38.5874 164.033 39.6456 162.207 39.6456C160.38 39.6456 158.891 38.5874 158.891 37.2812C158.891 35.975 160.38 34.9197 162.207 34.9197C164.033 34.9197 165.522 35.9779 165.522 37.2812Z" fill="white" stroke="#263238" stroke-width="0.562842" stroke-miterlimit="10"/>
<path d="M162.152 42.8807C162.152 43.7889 161.116 44.5271 159.835 44.5271C158.554 44.5271 157.517 43.7889 157.517 42.8807C157.517 41.9724 158.557 41.2343 159.835 41.2343C161.113 41.2343 162.152 41.9724 162.152 42.8807Z" fill="white" stroke="#263238" stroke-width="0.562842" stroke-miterlimit="10"/>
<path d="M166.83 24.1011C166.83 23.8839 166.763 23.6715 166.637 23.4908C166.511 23.3101 166.331 23.1693 166.121 23.0862C165.912 23.003 165.681 22.9813 165.458 23.0237C165.235 23.0661 165.031 23.1707 164.87 23.3243C164.709 23.478 164.6 23.6737 164.556 23.8868C164.511 24.0999 164.534 24.3208 164.621 24.5215C164.708 24.7223 164.855 24.8939 165.044 25.0146C165.233 25.1353 165.455 25.1997 165.682 25.1997C165.986 25.1989 166.278 25.083 166.493 24.8771C166.708 24.6712 166.829 24.3923 166.83 24.1011Z" fill="#263238"/>
<path d="M172.349 24.1011C172.349 23.8839 172.282 23.6715 172.155 23.4908C172.029 23.3101 171.85 23.1693 171.64 23.0862C171.43 23.003 171.199 22.9813 170.977 23.0237C170.754 23.0661 170.549 23.1707 170.389 23.3243C170.228 23.478 170.119 23.6737 170.074 23.8868C170.03 24.0999 170.053 24.3208 170.14 24.5215C170.227 24.7223 170.374 24.8939 170.563 25.0146C170.751 25.1353 170.973 25.1997 171.201 25.1997C171.505 25.1997 171.797 25.084 172.013 24.8779C172.228 24.6719 172.349 24.3925 172.349 24.1011Z" fill="#263238"/>
<path d="M177.852 24.1011C177.852 23.8839 177.785 23.6715 177.659 23.4908C177.533 23.3101 177.353 23.1693 177.143 23.0862C176.934 23.003 176.703 22.9813 176.48 23.0237C176.257 23.0661 176.053 23.1707 175.892 23.3243C175.731 23.478 175.622 23.6737 175.578 23.8868C175.533 24.0999 175.556 24.3208 175.643 24.5215C175.73 24.7223 175.877 24.8939 176.066 25.0146C176.255 25.1353 176.477 25.1997 176.704 25.1997C177.008 25.1989 177.3 25.083 177.515 24.8771C177.73 24.6712 177.852 24.3923 177.852 24.1011Z" fill="#263238"/>
<path d="M114.067 58.056C114.067 58.056 112.259 50.9081 104.278 50.7437C96.2969 50.5794 92.0834 57.8138 91.574 59.2872C91.0646 60.7606 80.8382 64.956 81.869 69.6386C82.8997 74.3212 87.1073 71.1985 87.2941 73.0987C87.481 74.9988 83.6774 79.422 85.9198 83.2828C88.1622 87.1437 90.3865 89.609 95.881 87.1466C101.375 84.6842 103.784 81.8873 105.586 83.3664C107.388 84.8456 108.419 87.063 114.947 85.2551C121.476 83.4472 119.068 78.4358 118.468 75.2324C117.868 72.0289 123.619 69.5636 121.816 64.7167C120.014 59.8697 116.126 57.0699 114.067 58.056Z" fill="#263238" stroke="#263238" stroke-width="0.562842" stroke-miterlimit="10"/>
<path d="M99.7268 83.6029L100.842 87.7117C100.842 87.7117 95.0883 90.7508 91.3088 92.23C89.1893 93.0869 86.9688 93.694 84.6961 94.0379L80.4042 110.796H130.81C130.81 110.796 123.857 95.4335 123.341 94.2022C122.826 92.971 122.567 92.3136 122.567 92.3136C122.567 92.3136 114.667 90.5836 112.349 89.4302C110.032 88.2769 109.601 87.6252 109.601 87.6252L109.357 77.8534L99.7268 83.6029Z" fill="#1E56A0" stroke="#263238" stroke-width="0.562842" stroke-linecap="round" stroke-linejoin="round"/>
<path d="M112.78 89.6321C112.621 89.5657 112.479 89.4994 112.349 89.436C110.032 88.2826 109.601 87.631 109.601 87.631L109.356 77.8534L99.7389 83.6029L100.854 87.7117C100.854 87.7117 99.4164 88.4701 97.5085 89.4129L95.6157 99.3779L109.528 99.9546L112.78 89.6321Z" fill="white" stroke="#263238" stroke-width="0.562842" stroke-miterlimit="10"/>
<path d="M107.711 80.6475L108.911 78.1101L99.7269 83.603L100.842 87.7118L101.614 90.8345L107.711 80.6475Z" fill="#263238" stroke="#263238" stroke-width="0.562842" stroke-miterlimit="10"/>
<path d="M86.158 110.796L88.5631 99.4586" stroke="#263238" stroke-width="0.562842" stroke-miterlimit="10"/>
<path d="M116.557 110.88L119.477 97.6509" stroke="#263238" stroke-width="0.562842" stroke-miterlimit="10"/>
<path d="M98.9372 64.5322C98.2116 65.3497 97.404 66.0971 96.526 66.7639C95.2812 67.6549 92.4028 67.9519 92.4028 67.9519C92.4028 67.9519 92.7916 74.5837 93.5692 77.7727C94.3469 80.9618 97.7707 84.5429 98.5484 84.9178C99.326 85.2926 105.86 82.464 107.648 81.2732C109.435 80.0823 110.448 77.0317 110.448 77.0317C111.448 76.6878 112.352 76.1285 113.091 75.3968C114.414 74.131 114.025 70.9333 114.025 70.9333C114.025 70.9333 112.235 72.7181 111.382 72.8652C110.529 73.0122 109.435 70.6334 109.435 70.6334C109.435 70.6334 105.936 70.4114 105.083 68.7736C104.23 67.1359 106.092 64.1602 104.459 62.1418C102.825 60.1235 98.9372 64.5322 98.9372 64.5322Z" fill="white" stroke="#263238" stroke-width="0.562842" stroke-miterlimit="10"/>
<path d="M96.2156 70.1864C96.443 70.9404 96.5994 71.7124 96.6828 72.4931C96.7611 73.5369 95.5947 77.6284 95.5947 77.6284H98.4731" stroke="#263238" stroke-width="0.562842" stroke-miterlimit="10"/>
<path d="M96.9177 79.5575C98.0735 79.9524 99.3365 79.9524 100.492 79.5575C102.361 78.8885 103.838 75.8379 103.838 75.8379" stroke="#263238" stroke-width="0.562842" stroke-miterlimit="10"/>
<path d="M98.479 79.8661C98.479 79.8661 98.7804 82.5332 100.339 81.7172C101.897 80.9012 102.123 78.3696 102.123 78.3696C101.163 79.3097 99.8527 79.8477 98.479 79.8661Z" fill="#263238" stroke="#263238" stroke-width="0.562842" stroke-miterlimit="10"/>
<path d="M101.107 72.9834C101.415 72.9834 101.665 72.5509 101.665 72.0175C101.665 71.484 101.415 71.0515 101.107 71.0515C100.799 71.0515 100.55 71.484 100.55 72.0175C100.55 72.5509 100.799 72.9834 101.107 72.9834Z" fill="#263238" stroke="#263238" stroke-width="0.562842" stroke-miterlimit="10"/>
<path d="M95.4922 71.3658C95.4922 71.8992 95.2662 72.3317 94.9889 72.3317C94.7116 72.3317 94.4825 71.8992 94.4825 71.3658C94.4825 70.8324 94.7086 70.397 94.9889 70.397C95.2692 70.397 95.4922 70.8208 95.4922 71.3658Z" fill="#263238" stroke="#263238" stroke-width="0.562842" stroke-miterlimit="10"/>
<path d="M99.3229 69.1168C99.3229 69.1168 101.665 67.0811 103.473 69.9328" stroke="#263238" stroke-width="0.562842" stroke-miterlimit="10"/>
<path d="M95.9744 69.1686C95.9744 69.1686 93.6867 67.9461 93.2075 70.0336" stroke="#263238" stroke-width="0.562842" stroke-miterlimit="10"/>
<path d="M119.119 15.6412H86.5679C86.123 15.642 85.6826 15.7266 85.2719 15.8901C84.8612 16.0537 84.4882 16.2931 84.1741 16.5946C83.8601 16.896 83.6112 17.2537 83.4417 17.6472C83.2722 18.0407 83.1854 18.4623 83.1862 18.8879V37.4426C83.1862 37.8682 83.2738 38.2896 83.444 38.6828C83.6143 39.076 83.8638 39.4333 84.1784 39.7343C84.493 40.0352 84.8664 40.2739 85.2775 40.4368C85.6885 40.5997 86.129 40.6835 86.5739 40.6835H103.561L107.829 48.5494L108.603 40.6835H119.119C119.564 40.6835 120.004 40.5997 120.415 40.4368C120.826 40.2739 121.2 40.0352 121.514 39.7343C121.829 39.4333 122.079 39.076 122.249 38.6828C122.419 38.2896 122.507 37.8682 122.507 37.4426V18.8879C122.507 18.4618 122.42 18.0398 122.25 17.6459C122.081 17.252 121.831 16.8941 121.517 16.5925C121.202 16.291 120.828 16.0517 120.417 15.8885C120.005 15.7253 119.564 15.6412 119.119 15.6412Z" fill="#263238" stroke="#263238" stroke-width="0.562842" stroke-linecap="round" stroke-linejoin="round"/>
<path d="M117.986 14.1217H85.4345C84.536 14.1217 83.6743 14.4632 83.039 15.071C82.4037 15.6787 82.0468 16.5031 82.0468 17.3626V35.9173C82.0468 36.7768 82.4037 37.6012 83.039 38.209C83.6743 38.8168 84.536 39.1582 85.4345 39.1582H102.424L106.695 47.0241L107.47 39.1582H117.986C118.884 39.1582 119.746 38.8168 120.381 38.209C121.016 37.6012 121.373 36.7768 121.373 35.9173V17.3626C121.373 16.5031 121.016 15.6787 120.381 15.071C119.746 14.4632 118.884 14.1217 117.986 14.1217Z" fill="white" stroke="#263238" stroke-width="0.562842" stroke-miterlimit="10"/>
<path d="M97.2523 27.1777C97.2529 26.9604 97.1861 26.7477 97.0603 26.5666C96.9345 26.3856 96.7553 26.2443 96.5456 26.1607C96.3358 26.0772 96.1048 26.055 95.8818 26.0971C95.6589 26.1391 95.454 26.2435 95.2931 26.397C95.1322 26.5506 95.0225 26.7463 94.978 26.9595C94.9334 27.1727 94.956 27.3937 95.0428 27.5946C95.1296 27.7955 95.2768 27.9673 95.4657 28.0881C95.6546 28.2089 95.8768 28.2734 96.104 28.2734C96.4081 28.2734 96.6997 28.1581 96.9149 27.9527C97.1302 27.7473 97.2515 27.4686 97.2523 27.1777Z" fill="#263238"/>
<path d="M102.765 27.1777C102.766 26.9604 102.699 26.7477 102.573 26.5666C102.447 26.3856 102.268 26.2443 102.058 26.1607C101.848 26.0772 101.617 26.055 101.394 26.0971C101.171 26.1391 100.967 26.2435 100.806 26.397C100.645 26.5506 100.535 26.7463 100.491 26.9595C100.446 27.1727 100.469 27.3937 100.555 27.5946C100.642 27.7955 100.789 27.9673 100.978 28.0881C101.167 28.2089 101.389 28.2734 101.617 28.2734C101.921 28.2734 102.212 28.1581 102.428 27.9527C102.643 27.7473 102.764 27.4686 102.765 27.1777Z" fill="#263238"/>
<path d="M108.275 27.1777C108.275 26.9604 108.208 26.7477 108.082 26.5666C107.957 26.3856 107.778 26.2443 107.568 26.1607C107.358 26.0772 107.127 26.055 106.904 26.0971C106.681 26.1391 106.476 26.2435 106.315 26.397C106.154 26.5506 106.045 26.7463 106 26.9595C105.956 27.1727 105.978 27.3937 106.065 27.5946C106.152 27.7955 106.299 27.9673 106.488 28.0881C106.677 28.2089 106.899 28.2734 107.126 28.2734C107.43 28.2734 107.722 28.1581 107.937 27.9527C108.152 27.7473 108.274 27.4686 108.275 27.1777Z" fill="#263238"/>
<path d="M30.5197 88.4123C30.5197 88.4123 14.9675 97.5613 14.9675 98.4696C14.9675 99.3779 11.7787 110.868 11.7787 110.868H71.1904C71.1904 110.868 64.2582 95.8399 62.9471 94.8711C61.6361 93.9023 45.9151 86.541 44.595 86.0191C43.2749 85.4972 30.5197 88.4123 30.5197 88.4123Z" fill="#1E56A0" stroke="#263238" stroke-width="0.562842" stroke-linecap="round" stroke-linejoin="round"/>
<path d="M19.1659 110.805L17.9995 102.547" stroke="#263238" stroke-width="0.562842" stroke-miterlimit="10"/>
<path d="M66.3679 110.805L62.6366 98.0083" stroke="#263238" stroke-width="0.562842" stroke-miterlimit="10"/>
<path d="M41.795 97.7113C41.795 97.7113 43.2719 105.672 43.507 106.116C43.7421 106.56 46.0629 105.966 46.0629 105.966L45.2852 101.065" stroke="#263238" stroke-width="0.562842" stroke-miterlimit="10"/>
<path d="M30.598 83.5769C30.598 83.5769 28.5757 85.2868 28.2652 87.8155C27.9548 90.3442 29.51 98.6773 30.9085 98.4552C32.307 98.2332 34.4077 95.1076 35.6525 94.7357C36.8973 94.3637 43.6607 93.0979 44.4383 92.8009C45.2159 92.5039 47.7838 93.1729 48.5614 93.6948C49.339 94.2167 50.5808 94.7357 50.7375 93.9168C50.8942 93.0979 49.4144 87.285 47.6271 83.8739C45.8398 80.4629 42.0271 80.2293 38.7629 80.6762C35.4988 81.1232 30.598 83.5769 30.598 83.5769Z" fill="white" stroke="#263238" stroke-width="0.562842" stroke-miterlimit="10"/>
<path d="M28.1868 78.6665C28.1868 78.6665 32.3853 90.1222 34.0972 91.685C35.8091 93.2478 39.8509 98.0833 41.7949 97.7113C43.7389 97.3394 44.827 90.1972 44.6733 87.4436C44.5196 84.6899 42.4942 75.1689 42.4942 75.1689C42.4942 75.1689 41.9516 76.8817 38.0636 78.7415C34.1756 80.6013 28.1868 78.6665 28.1868 78.6665Z" fill="white" stroke="#263238" stroke-width="0.562842" stroke-miterlimit="10"/>
<path d="M37.8285 82.2361C39.3699 80.2877 40.739 78.2199 41.9215 76.0541C41.3428 76.7259 40.2156 77.7091 38.0636 78.7414C34.1756 80.6012 28.1868 78.6664 28.1868 78.6664C28.1868 78.6664 29.7993 83.0665 31.4328 86.7861C33.0513 86.1575 35.8423 84.785 37.8285 82.2361Z" fill="#263238" stroke="#263238" stroke-width="0.562842" stroke-miterlimit="10"/>
<path d="M24.4525 71.6742C24.4525 71.6742 22.4331 71.8212 22.8219 73.6061C23.2107 75.3909 25.6189 77.4756 26.3965 77.5506C27.1741 77.6255 27.1741 77.0287 27.1741 77.0287L24.4525 71.6742Z" fill="white" stroke="#263238" stroke-width="0.562842" stroke-miterlimit="10"/>
<path d="M41.1892 68.2863C41.1892 68.2863 42.9042 67.2483 43.7089 68.9005C44.5136 70.5527 43.8867 73.6033 43.3111 74.1079C42.7354 74.6125 42.3616 74.1367 42.3616 74.1367L41.1892 68.2863Z" fill="white" stroke="#263238" stroke-width="0.562842" stroke-miterlimit="10"/>
<path d="M23.2862 62.3004C23.2862 62.3004 21.4989 66.317 21.9661 67.4329C22.4332 68.5488 24.4526 71.6744 24.4526 71.6744C24.4526 71.6744 26.8638 78.3696 28.419 79.6325C29.9742 80.8955 33.2414 82.7581 36.2735 82.3112C39.3055 81.8643 42.9615 79.4855 43.0399 75.913C43.1182 72.3404 37.2078 58.2089 37.2078 58.2089C36.1177 57.6335 34.8665 57.3995 33.6302 57.54C31.5204 57.762 26.475 57.2516 24.9981 58.2839C23.5213 59.3161 23.1325 60.6627 23.2862 62.3004Z" fill="white" stroke="#263238" stroke-width="0.562842" stroke-miterlimit="10"/>
<path d="M22.5869 61.1845C22.5869 61.1845 20.4771 64.3072 20.7212 65.87C20.9653 67.4328 24.4525 71.6743 24.4525 71.6743C24.4525 71.6743 22.7436 67.7298 23.2108 66.242C23.6779 64.7541 24.4525 64.0852 24.2988 62.7473C24.1451 61.4094 23.5212 61.4065 23.8316 60.6626C24.1421 59.9187 23.5302 58.9527 26.3212 59.6217C29.1121 60.2906 31.9965 60.8875 34.3294 60.0686C36.6622 59.2497 39.6942 56.868 39.3838 54.3393C39.0734 51.8106 36.5838 52.1825 35.107 53.1485C33.6301 54.1144 33.9405 55.6051 32.6204 54.5642C31.3003 53.5233 31.3756 51.4386 29.0428 52.1825C26.71 52.9264 21.7309 55.6051 22.5869 61.1845Z" fill="#263238" stroke="#263238" stroke-width="0.562842" stroke-miterlimit="10"/>
<path d="M37.2076 58.2089C37.2076 58.2089 39.9202 65.723 40.4718 66.7639C40.8308 67.48 41.1174 68.2273 41.3278 68.9956C41.3278 68.9956 42.4158 65.648 41.7166 63.4163C41.0173 61.1845 37.2076 58.2089 37.2076 58.2089Z" fill="#263238" stroke="#263238" stroke-width="0.562842" stroke-miterlimit="10"/>
<path d="M33.6873 62.776L33.0092 64.235L34.0188 66.6888" stroke="#263238" stroke-width="0.562842" stroke-miterlimit="10"/>
<path d="M35.4957 68.6986C35.4957 68.6986 34.4076 70.1864 33.0845 70.5584" stroke="#263238" stroke-width="0.562842" stroke-miterlimit="10"/>
<path d="M29.3533 71.8214C29.3533 71.8214 31.1406 73.6062 32.2316 73.4591C33.3227 73.3121 36.6622 72.5653 37.3554 71.5244C38.0486 70.4835 38.133 68.9293 38.133 68.9293" stroke="#263238" stroke-width="0.562842" stroke-miterlimit="10"/>
<path d="M32.2316 73.4591C32.2316 73.4591 34.6428 75.5409 35.4957 75.3189C36.3487 75.0969 36.5838 72.3433 36.5838 72.3433L32.2316 73.4591Z" fill="#263238" stroke="#263238" stroke-width="0.562842" stroke-miterlimit="10"/>
<path d="M27.7981 67.8798C27.7981 67.8798 27.7198 66.242 29.7422 66.7639" stroke="#263238" stroke-width="0.562842" stroke-miterlimit="10"/>
<path d="M34.9531 65.5729C34.9531 65.5729 35.8844 63.8631 37.286 64.829" stroke="#263238" stroke-width="0.562842" stroke-miterlimit="10"/>
<path d="M25.7756 65.051C25.7756 65.051 26.4749 62.5972 29.5853 63.1191" stroke="#263238" stroke-width="1.68852" stroke-miterlimit="10" stroke-linecap="round"/>
<path d="M34.4077 61.8505C34.4077 61.8505 35.8846 59.7686 37.6749 61.9254" stroke="#263238" stroke-width="1.68852" stroke-miterlimit="10" stroke-linecap="round"/>
<path d="M51.4217 35.2397C49.7819 35.2352 48.1509 35.4685 46.5842 35.9318L42.8137 31.8258C45.2055 29.295 46.5401 26.0107 46.5631 22.5989C46.5631 14.2803 38.5459 7.5332 28.657 7.5332C18.7681 7.5332 10.7479 14.2746 10.7479 22.6018C10.7479 30.9291 18.7651 37.6704 28.657 37.6704C33.0256 37.7024 37.2762 36.3148 40.713 33.7346L44.2062 36.8544C40.7913 38.5499 38.5459 41.4189 38.5459 44.6713C38.5459 48.8205 42.2049 52.344 47.2865 53.6098L45.237 59.2036L50.409 54.0654C50.7435 54.0827 51.0781 54.0971 51.4217 54.0971C58.5226 54.0971 64.2824 49.873 64.2824 44.6656C64.2824 39.4581 58.5226 35.2397 51.4217 35.2397Z" fill="#263238" stroke="#263238" stroke-width="0.562842" stroke-miterlimit="10"/>
<path d="M50.1106 34.1959C48.4758 34.1925 46.85 34.4259 45.2882 34.8879L41.5147 30.782C43.9085 28.2522 45.2444 24.9674 45.2671 21.5551C45.2671 13.2365 37.2499 6.48938 27.358 6.48938C17.4661 6.48938 9.4519 13.2365 9.4519 21.5551C9.4519 29.8737 17.4691 36.6237 27.358 36.6237C31.7268 36.6571 35.9778 35.2693 39.414 32.6879L42.9102 35.8077C39.4953 37.5032 37.2499 40.3721 37.2499 43.6246C37.2499 47.7738 40.9089 51.2973 45.9905 52.5631L43.9379 58.1569L49.1039 53.0302C49.4355 53.0475 49.773 53.062 50.1136 53.062C57.2176 53.062 62.9743 48.8378 62.9743 43.6304C62.9743 38.423 57.2146 34.1959 50.1106 34.1959Z" fill="white" stroke="#263238" stroke-width="0.562842" stroke-miterlimit="10"/>
<path d="M21.4746 23.0026C22.1088 23.0026 22.623 22.5107 22.623 21.904C22.623 21.2973 22.1088 20.8054 21.4746 20.8054C20.8404 20.8054 20.3263 21.2973 20.3263 21.904C20.3263 22.5107 20.8404 23.0026 21.4746 23.0026Z" fill="#263238"/>
<path d="M26.9872 23.0026C27.6214 23.0026 28.1355 22.5107 28.1355 21.904C28.1355 21.2973 27.6214 20.8054 26.9872 20.8054C26.353 20.8054 25.8389 21.2973 25.8389 21.904C25.8389 22.5107 26.353 23.0026 26.9872 23.0026Z" fill="#263238"/>
<path d="M33.6452 21.904C33.6452 21.6867 33.5778 21.4743 33.4516 21.2937C33.3255 21.113 33.1461 20.9722 32.9363 20.889C32.7265 20.8059 32.4956 20.7841 32.2728 20.8265C32.0501 20.8689 31.8454 20.9735 31.6849 21.1272C31.5243 21.2808 31.4149 21.4766 31.3706 21.6897C31.3263 21.9028 31.349 22.1237 31.4359 22.3244C31.5228 22.5251 31.67 22.6967 31.8589 22.8174C32.0477 22.9381 32.2697 23.0026 32.4968 23.0026C32.8014 23.0026 33.0935 22.8868 33.3088 22.6808C33.5242 22.4748 33.6452 22.1954 33.6452 21.904Z" fill="#263238"/>
<path d="M46.0446 44.0916C46.0446 43.8743 45.9772 43.6619 45.8511 43.4813C45.7249 43.3006 45.5455 43.1598 45.3357 43.0767C45.1259 42.9935 44.895 42.9718 44.6722 43.0142C44.4495 43.0565 44.2449 43.1612 44.0843 43.3148C43.9237 43.4684 43.8143 43.6642 43.77 43.8773C43.7257 44.0904 43.7484 44.3113 43.8353 44.512C43.9223 44.7128 44.0694 44.8843 44.2583 45.005C44.4471 45.1258 44.6691 45.1902 44.8963 45.1902C45.2008 45.1902 45.4929 45.0744 45.7082 44.8684C45.9236 44.6624 46.0446 44.383 46.0446 44.0916Z" fill="#263238"/>
<path d="M51.5573 44.0916C51.5573 43.8743 51.4899 43.6619 51.3638 43.4813C51.2376 43.3006 51.0582 43.1598 50.8484 43.0767C50.6386 42.9935 50.4077 42.9718 50.1849 43.0142C49.9622 43.0565 49.7576 43.1612 49.597 43.3148C49.4364 43.4684 49.327 43.6642 49.2827 43.8773C49.2384 44.0904 49.2611 44.3113 49.348 44.512C49.4349 44.7128 49.5821 44.8843 49.771 45.005C49.9598 45.1258 50.1818 45.1902 50.4089 45.1902C50.7133 45.1894 51.0049 45.0734 51.2201 44.8676C51.4352 44.6617 51.5565 44.3827 51.5573 44.0916Z" fill="#263238"/>
<path d="M57.0668 44.0916C57.0668 43.8743 56.9995 43.6619 56.8733 43.4813C56.7471 43.3006 56.5677 43.1598 56.3579 43.0767C56.1481 42.9935 55.9172 42.9718 55.6944 43.0142C55.4717 43.0565 55.2671 43.1612 55.1065 43.3148C54.9459 43.4684 54.8365 43.6642 54.7922 43.8773C54.7479 44.0904 54.7706 44.3113 54.8576 44.512C54.9445 44.7128 55.0917 44.8843 55.2805 45.005C55.4693 45.1258 55.6914 45.1902 55.9185 45.1902C56.223 45.1902 56.5151 45.0744 56.7305 44.8684C56.9458 44.6624 57.0668 44.383 57.0668 44.0916Z" fill="#263238"/>
<path d="M0 110.88H206" stroke="#263238" stroke-width="0.562842" stroke-miterlimit="10"/>
</svg>
