<svg width="24" height="25" viewBox="0 0 24 25" fill="none" xmlns="http://www.w3.org/2000/svg">
<g id="icons/invoices" clip-path="url(#clip0_1_984)">
<path id="Vector" d="M18 0.400024H6C5.20435 0.400024 4.44129 0.716095 3.87868 1.2787C3.31607 1.84131 3 2.60437 3 3.40002V21.4C3 22.1957 3.31607 22.9587 3.87868 23.5213C4.44129 24.084 5.20435 24.4 6 24.4H18C18.7956 24.4 19.5587 24.084 20.1213 23.5213C20.6839 22.9587 21 22.1957 21 21.4V3.40002C21 2.60437 20.6839 1.84131 20.1213 1.2787C19.5587 0.716095 18.7956 0.400024 18 0.400024V0.400024ZM7.5 6.40002H16.5C16.6989 6.40002 16.8897 6.47904 17.0303 6.61969C17.171 6.76035 17.25 6.95111 17.25 7.15002C17.25 7.34894 17.171 7.5397 17.0303 7.68035C16.8897 7.82101 16.6989 7.90002 16.5 7.90002H7.5C7.30109 7.90002 7.11032 7.82101 6.96967 7.68035C6.82902 7.5397 6.75 7.34894 6.75 7.15002C6.75 6.95111 6.82902 6.76035 6.96967 6.61969C7.11032 6.47904 7.30109 6.40002 7.5 6.40002ZM6.75 10.15C6.75 9.95111 6.82902 9.76035 6.96967 9.61969C7.11032 9.47904 7.30109 9.40002 7.5 9.40002H16.5C16.6989 9.40002 16.8897 9.47904 17.0303 9.61969C17.171 9.76035 17.25 9.95111 17.25 10.15C17.25 10.3489 17.171 10.5397 17.0303 10.6804C16.8897 10.821 16.6989 10.9 16.5 10.9H7.5C7.30109 10.9 7.11032 10.821 6.96967 10.6804C6.82902 10.5397 6.75 10.3489 6.75 10.15ZM7.5 12.4H16.5C16.6989 12.4 16.8897 12.479 17.0303 12.6197C17.171 12.7603 17.25 12.9511 17.25 13.15C17.25 13.3489 17.171 13.5397 17.0303 13.6804C16.8897 13.821 16.6989 13.9 16.5 13.9H7.5C7.30109 13.9 7.11032 13.821 6.96967 13.6804C6.82902 13.5397 6.75 13.3489 6.75 13.15C6.75 12.9511 6.82902 12.7603 6.96967 12.6197C7.11032 12.479 7.30109 12.4 7.5 12.4ZM7.5 15.4H12C12.1989 15.4 12.3897 15.479 12.5303 15.6197C12.671 15.7603 12.75 15.9511 12.75 16.15C12.75 16.3489 12.671 16.5397 12.5303 16.6804C12.3897 16.821 12.1989 16.9 12 16.9H7.5C7.30109 16.9 7.11032 16.821 6.96967 16.6804C6.82902 16.5397 6.75 16.3489 6.75 16.15C6.75 15.9511 6.82902 15.7603 6.96967 15.6197C7.11032 15.479 7.30109 15.4 7.5 15.4Z" fill="currentColor"/>
</g>
<defs>
<clipPath id="clip0_1_984">
<rect width="24" height="24" fill="white" transform="translate(0 0.400024)"/>
</clipPath>
</defs>
</svg>
