<svg width="24" height="25" viewBox="0 0 24 25" fill="none" xmlns="http://www.w3.org/2000/svg">
<g id="icons/dashboard">
<path id="Vector" d="M1.5 4.55005C1.5 3.95331 1.73705 3.38102 2.15901 2.95906C2.58097 2.5371 3.15326 2.30005 3.75 2.30005H8.25C8.84674 2.30005 9.41903 2.5371 9.84099 2.95906C10.2629 3.38102 10.5 3.95331 10.5 4.55005V9.05005C10.5 9.64679 10.2629 10.2191 9.84099 10.641C9.41903 11.063 8.84674 11.3 8.25 11.3H3.75C3.15326 11.3 2.58097 11.063 2.15901 10.641C1.73705 10.2191 1.5 9.64679 1.5 9.05005V4.55005ZM13.5 4.55005C13.5 3.95331 13.7371 3.38102 14.159 2.95906C14.581 2.5371 15.1533 2.30005 15.75 2.30005H20.25C20.8467 2.30005 21.419 2.5371 21.841 2.95906C22.2629 3.38102 22.5 3.95331 22.5 4.55005V9.05005C22.5 9.64679 22.2629 10.2191 21.841 10.641C21.419 11.063 20.8467 11.3 20.25 11.3H15.75C15.1533 11.3 14.581 11.063 14.159 10.641C13.7371 10.2191 13.5 9.64679 13.5 9.05005V4.55005ZM1.5 16.55C1.5 15.9533 1.73705 15.381 2.15901 14.9591C2.58097 14.5371 3.15326 14.3 3.75 14.3H8.25C8.84674 14.3 9.41903 14.5371 9.84099 14.9591C10.2629 15.381 10.5 15.9533 10.5 16.55V21.05C10.5 21.6468 10.2629 22.2191 9.84099 22.641C9.41903 23.063 8.84674 23.3 8.25 23.3H3.75C3.15326 23.3 2.58097 23.063 2.15901 22.641C1.73705 22.2191 1.5 21.6468 1.5 21.05V16.55ZM13.5 16.55C13.5 15.9533 13.7371 15.381 14.159 14.9591C14.581 14.5371 15.1533 14.3 15.75 14.3H20.25C20.8467 14.3 21.419 14.5371 21.841 14.9591C22.2629 15.381 22.5 15.9533 22.5 16.55V21.05C22.5 21.6468 22.2629 22.2191 21.841 22.641C21.419 23.063 20.8467 23.3 20.25 23.3H15.75C15.1533 23.3 14.581 23.063 14.159 22.641C13.7371 22.2191 13.5 21.6468 13.5 21.05V16.55Z" fill="currentColor"/>
</g>
</svg>
