<svg width="20" height="20" viewBox="0 0 20 20" fill="none" xmlns="http://www.w3.org/2000/svg">
<path d="M14.707 0L13.293 1.41406L15.5859 3.70703H15C8.93659 3.70703 4 8.64362 4 14.707V15.707H6V14.707C6 9.72444 10.0174 5.70703 15 5.70703H15.5859L13.293 8L14.707 9.41406L19.4141 4.70703L14.707 0ZM0 5.70703V6.70703V16.707C0 18.352 1.35503 19.707 3 19.707H17C18.645 19.707 20 18.352 20 16.707V15.707V14.707H18V15.707V16.707C18 17.2721 17.565 17.707 17 17.707H3C2.43497 17.707 2 17.2721 2 16.707V6.70703V5.70703H0Z" fill="#055C81"/>
</svg>
