<svg xmlns="http://www.w3.org/2000/svg" data-name="Layer 1" viewBox="0 0 32 32" id="popcorn"><path fill="#feea9d" d="M23 11.5a2.5 2.5 0 0 0 0-5 2.49 2.49 0 0 0-2-4 2.35 2.35 0 0 0-.54.06 2.49 2.49 0 0 0-4.46-1A2.5 2.5 0 0 0 11.5 3 2.49 2.49 0 0 0 8 6.5a2.5 2.5 0 0 0 0 5Z"></path><path fill="none" stroke="#fee27d" stroke-linecap="round" stroke-linejoin="round" d="M22.45 12.08A3.18 3.18 0 0 0 25.5 9 3 3 0 0 0 23 6.5h0a2.49 2.49 0 0 0-2-4 2.35 2.35 0 0 0-.54.06 2.49 2.49 0 0 0-4.46-1A2.5 2.5 0 0 0 11.5 3h0A2.49 2.49 0 0 0 8 6.5h0A2.87 2.87 0 0 0 5.5 9 3 3 0 0 0 8 12"></path><path fill="#ed4769" d="m24.4 12.5-1.9 19h-14L6.61 12.6a1 1 0 0 1 1-1.1H23.5a1 1 0 0 1 .9 1Z"></path><path fill="#eb304a" d="m24.4 12.5-1.9 19h-1l2-20a1 1 0 0 1 .9 1Z"></path><path fill="#fee27d" d="M19.5 31.5h-8l-2-20h12l-2 20z"></path><path fill="#ed4769" d="M16.5 31.5h-2l-1-20h4l-1 20z"></path><ellipse cx="15.5" cy="21" fill="#fff" rx="8" ry="5.5"></ellipse><path fill="#e1e1e3" d="M15.5 15.5H15c4.18.18 7.5 2.56 7.5 5.48s-3.32 5.3-7.5 5.48h.5c4.42 0 8-2.46 8-5.5s-3.58-5.46-8-5.46Z"></path><path fill="#fee27d" d="M15.93 9.5a.5.5 0 0 1-.5-.5c0-.37-.33-.72-.84-.9a.48.48 0 0 1-.27-.73.68.68 0 0 0 .11-.37c0-.54-.68-1-1.5-1s-1.5.46-1.5 1a.67.67 0 0 0 .08.29.5.5 0 0 1 0 .5A.54.54 0 0 1 11 8v-.44V8c-.81 0-1.5.46-1.5 1a.5.5 0 0 1-.5.5.5.5 0 0 1-.5-.5 2.18 2.18 0 0 1 2-2A2.3 2.3 0 0 1 13 5a2.3 2.3 0 0 1 2.5 2 1.5 1.5 0 0 1 0 .37 1.9 1.9 0 0 1 1 1.63.5.5 0 0 1-.57.5Z"></path><path fill="#fee27d" d="M21 9.72a.43.43 0 0 1-.19 0 .49.49 0 0 1-.29-.72 1.09 1.09 0 0 0-.44-1.15.51.51 0 0 1 0-.78.68.68 0 0 0 .26-.3c.2-.49-.25-1.18-1-1.5a1.8 1.8 0 0 0-1.32-.07.82.82 0 0 0-.44.41.79.79 0 0 0-.06.29.5.5 0 0 1-.19.43.49.49 0 0 1-.47.07h-.12a1.49 1.49 0 0 0-1.71.19.51.51 0 0 1-.7.1.5.5 0 0 1-.09-.7 2.25 2.25 0 0 1 2.4-.68 1.74 1.74 0 0 1 1-.94 2.77 2.77 0 0 1 2.09.07 2.3 2.3 0 0 1 1.57 2.74 1.77 1.77 0 0 1-.19.33 1.91 1.91 0 0 1 .32 1.91.49.49 0 0 1-.43.3Z"></path><path fill="#ed4769" d="M12 19h7v4h-7z"></path><path fill="#eb304a" d="M18 19h1v4h-1z"></path></svg>