<svg xmlns="http://www.w3.org/2000/svg" width="32" height="32" id="shopping"><path d="M19.26 1026.338c-2.207 0-4 1.792-4 3.998v5.498a.5.5 0 1 0 1 0v-5.498c0-1.67 1.329-2.998 3-2.998 1.67 0 3 1.329 3 2.998v5.498a.5.5 0 1 0 1 0v-5.498a4.001 4.001 0 0 0-4-3.998z" style="line-height:normal;text-indent:0;text-align:start;text-decoration-line:none;text-decoration-style:solid;text-decoration-color:#000;text-transform:none;block-progression:tb;white-space:normal;isolation:auto;mix-blend-mode:normal;solid-color:#000;solid-opacity:1" fill="#c7c6ce" color="#000" enable-background="accumulate" font-family="sans-serif" font-weight="400" overflow="visible" transform="translate(-4.259 -1023.396)"></path><path fill="#990012" fill-rule="evenodd" d="M12.259 1033.396h4c.554 0 1 .446 1 1v18c0 .554-.446 1-1 1h-4c-.554 0-1-.446-1-1v-18c0-.554.446-1 1-1z" transform="translate(-4.259 -1023.396)"></path><path fill="#3c3b41" d="M14.259 1033.396h2v1h-2zM12.009 1033.396a.748.748 0 0 0-.75.75c0 .83.669 1.5 1.5 1.5s1.5-.67 1.5-1.5v-.75h-2.25z" transform="translate(-4.259 -1023.396)"></path><path fill="#e6001f" fill-rule="evenodd" d="M15.33 1033.396h12.858c.593 0 1.071.446 1.071 1v18c0 .554-.478 1-1.071 1H15.33c-.593 0-1.071-.446-1.071-1v-18c0-.554.478-1 1.071-1z" transform="translate(-4.259 -1023.396)"></path><path fill="#990012" d="M19.759 1035.896a1 1 0 0 1-1 1 1 1 0 0 1-1-1 1 1 0 0 1 1-1 1 1 0 0 1 1 1zM26.759 1035.896a1 1 0 0 1-1 1 1 1 0 0 1-1-1 1 1 0 0 1 1-1 1 1 0 0 1 1 1z" transform="translate(-4.259 -1023.396)"></path><path d="M22.26 1026.338c-2.207 0-4 1.792-4 3.998v5.498a.5.5 0 1 0 1 0v-5.498c0-1.67 1.329-2.998 3-2.998 1.67 0 3 1.329 3 2.998v5.498a.5.5 0 1 0 1 0v-5.498a4.001 4.001 0 0 0-4-3.998z" style="line-height:normal;text-indent:0;text-align:start;text-decoration-line:none;text-decoration-style:solid;text-decoration-color:#000;text-transform:none;block-progression:tb;white-space:normal;isolation:auto;mix-blend-mode:normal;solid-color:#000;solid-opacity:1" fill="#c7c6ce" color="#000" enable-background="accumulate" font-family="sans-serif" font-weight="400" overflow="visible" transform="translate(-4.259 -1023.396)"></path><path d="M22.252 1038.953a.5.5 0 0 0-.492.506v10.428a.5.5 0 1 0 1 0v-10.428a.5.5 0 0 0-.508-.506z" style="line-height:normal;text-indent:0;text-align:start;text-decoration-line:none;text-decoration-style:solid;text-decoration-color:#000;text-transform:none;block-progression:tb;white-space:normal;isolation:auto;mix-blend-mode:normal;solid-color:#000;solid-opacity:1" fill="#c7c6ce" fill-rule="evenodd" color="#000" enable-background="accumulate" font-family="sans-serif" font-weight="400" overflow="visible" transform="translate(-4.259 -1023.396)"></path><path d="M21.066 1039.924a.5.5 0 0 0-.277.918l1.19.802a.5.5 0 0 0 .56 0l1.19-.802a.5.5 0 1 0-.56-.828l-.91.613-.91-.613a.5.5 0 0 0-.283-.09zM22.256 1047.404a.5.5 0 0 0-.277.084l-1.19.805a.5.5 0 1 0 .56.828l.91-.615.91.615a.5.5 0 1 0 .56-.828l-1.19-.805a.5.5 0 0 0-.283-.084zM26.727 1041.566a.5.5 0 0 0-.223.07l-8.992 5.213a.5.5 0 1 0 .502.865l8.992-5.212a.5.5 0 0 0-.28-.936z" style="line-height:normal;text-indent:0;text-align:start;text-decoration-line:none;text-decoration-style:solid;text-decoration-color:#000;text-transform:none;block-progression:tb;white-space:normal;isolation:auto;mix-blend-mode:normal;solid-color:#000;solid-opacity:1" fill="#c7c6ce" fill-rule="evenodd" color="#000" enable-background="accumulate" font-family="sans-serif" font-weight="400" overflow="visible" transform="translate(-4.259 -1023.396)"></path><path d="M17.727 1041.56a.5.5 0 0 0-.215.936l8.992 5.215a.5.5 0 0 0 .502-.865l-8.992-5.215a.5.5 0 0 0-.287-.07zM25.236 1040.963a.5.5 0 0 0-.476.47l-.104 1.43a.5.5 0 0 0 .282.487l1.292.625a.5.5 0 1 0 .436-.899l-.986-.478.078-1.092a.5.5 0 0 0-.522-.543zM18.047 1045.105a.5.5 0 0 0-.195.954l.988.478-.078 1.092a.5.5 0 1 0 .996.072l.103-1.43a.5.5 0 0 0-.28-.486l-1.294-.627a.5.5 0 0 0-.24-.053z" style="line-height:normal;text-indent:0;text-align:start;text-decoration-line:none;text-decoration-style:solid;text-decoration-color:#000;text-transform:none;block-progression:tb;white-space:normal;isolation:auto;mix-blend-mode:normal;solid-color:#000;solid-opacity:1" fill="#c7c6ce" fill-rule="evenodd" color="#000" enable-background="accumulate" font-family="sans-serif" font-weight="400" overflow="visible" transform="translate(-4.259 -1023.396)"></path><path d="M26.457 1045.105a.5.5 0 0 0-.227.053l-1.293.628a.5.5 0 0 0-.28.486l.103 1.43a.5.5 0 1 0 .998-.073l-.078-1.091.986-.479a.5.5 0 0 0-.209-.953zM19.266 1040.963a.5.5 0 0 0-.504.543l.078 1.092-.988.478a.5.5 0 1 0 .435.899l1.293-.625a.5.5 0 0 0 .281-.487l-.103-1.43a.5.5 0 0 0-.492-.47z" style="line-height:normal;text-indent:0;text-align:start;text-decoration-line:none;text-decoration-style:solid;text-decoration-color:#000;text-transform:none;block-progression:tb;white-space:normal;isolation:auto;mix-blend-mode:normal;solid-color:#000;solid-opacity:1" fill="#c7c6ce" fill-rule="evenodd" color="#000" enable-background="accumulate" font-family="sans-serif" font-weight="400" overflow="visible" transform="translate(-4.259 -1023.396)"></path></svg>