<svg width="55" height="27" viewBox="0 0 55 27" fill="none" xmlns="http://www.w3.org/2000/svg">
<rect width="55" height="27" fill="#F5F5F5"/>
<rect width="800" height="480" transform="translate(-64 -112)" fill="white"/>
<path d="M38.137 3.36537H14.8766V20.7745H38.137V3.36537Z" fill="#F8DA7F"/>
<path d="M40.5324 23.7687H27.6632C27.3326 23.7687 27.0643 23.501 27.0643 23.1699C27.0643 22.8387 27.3326 22.571 27.6632 22.571H39.9335V1.56943H13.08V3.67558C13.08 4.00614 12.8117 4.27443 12.4812 4.27443C12.1506 4.27443 11.8823 4.00614 11.8823 3.67558V0.970581C11.8823 0.640017 12.1506 0.371733 12.4812 0.371733H40.5324C40.8636 0.371733 41.1312 0.640017 41.1312 0.970581V23.1699C41.1312 23.5004 40.8636 23.7687 40.5324 23.7687Z" fill="black"/>
<path d="M17.5235 23.7687H12.4812C12.1506 23.7687 11.8823 23.501 11.8823 23.1699V20.1535C11.8823 19.8223 12.1506 19.5546 12.4812 19.5546C12.8117 19.5546 13.08 19.8223 13.08 20.1535V22.571H17.5235C17.854 22.571 18.1223 22.8387 18.1223 23.1699C18.1223 23.501 17.854 23.7687 17.5235 23.7687Z" fill="black"/>
<path d="M54.243 23.7687C53.9137 23.7687 53.6466 23.5034 53.6442 23.1741L53.5873 14.7082L47.4479 8.26395H41.1312V22.571H44.5357C44.8669 22.571 45.1345 22.8387 45.1345 23.1699C45.1345 23.501 44.8669 23.7687 44.5357 23.7687H40.5324C40.2012 23.7687 39.9336 23.501 39.9336 23.1699V7.6651C39.9336 7.33454 40.2012 7.06625 40.5324 7.06625H47.7048C47.8683 7.06625 48.0252 7.13332 48.1384 7.2519L54.6179 14.0536C54.7233 14.1644 54.782 14.3105 54.7832 14.4626L54.8419 23.1657C54.8443 23.4968 54.5778 23.7663 54.2472 23.7687C54.246 23.7687 54.2442 23.7687 54.243 23.7687Z" fill="black"/>
<path d="M49.3876 15.0651H44.3183C43.9872 15.0651 43.7195 14.7974 43.7195 14.4662V7.6651C43.7195 7.33454 43.9872 7.06625 44.3183 7.06625C44.6495 7.06625 44.9172 7.33454 44.9172 7.6651V13.868H49.3876C49.7187 13.868 49.9864 14.1363 49.9864 14.4668C49.9864 14.7974 49.7181 15.0651 49.3876 15.0651Z" fill="black"/>
<path d="M20.6926 26.9372C18.6152 26.9372 16.9246 25.2473 16.9246 23.1699C16.9246 21.0925 18.6146 19.4025 20.6926 19.4025C22.77 19.4025 24.4599 21.0925 24.4599 23.1699C24.4599 25.2473 22.7694 26.9372 20.6926 26.9372ZM20.6926 20.6002C19.2757 20.6002 18.1223 21.753 18.1223 23.1699C18.1223 24.5867 19.2751 25.7395 20.6926 25.7395C22.11 25.7395 23.2622 24.5867 23.2622 23.1699C23.2622 21.753 22.1094 20.6002 20.6926 20.6002Z" fill="black"/>
<path d="M47.7048 26.9372C45.6268 26.9372 43.9368 25.2473 43.9368 23.1699C43.9368 21.0925 45.6268 19.4025 47.7048 19.4025C49.7822 19.4025 51.4722 21.0925 51.4722 23.1699C51.4722 25.2473 49.7822 26.9372 47.7048 26.9372ZM47.7048 20.6002C46.2879 20.6002 45.1345 21.753 45.1345 23.1699C45.1345 24.5867 46.2879 25.7395 47.7048 25.7395C49.1217 25.7395 50.2745 24.5867 50.2745 23.1699C50.2745 21.753 49.1217 20.6002 47.7048 20.6002Z" fill="black"/>
<path d="M26.5068 12.6685H1.5444C1.21383 12.6685 0.94555 12.4002 0.94555 12.0696C0.94555 11.7391 1.21383 11.4708 1.5444 11.4708H26.5068C26.8373 11.4708 27.1056 11.7391 27.1056 12.0696C27.1056 12.4002 26.8373 12.6685 26.5068 12.6685Z" fill="black"/>
<path d="M26.5068 7.59863H7.88201C7.55145 7.59863 7.28316 7.33034 7.28316 6.99978C7.28316 6.66921 7.55145 6.40093 7.88201 6.40093H26.5074C26.8379 6.40093 27.1062 6.66921 27.1062 6.99978C27.1062 7.33034 26.8373 7.59863 26.5068 7.59863Z" fill="black"/>
<path d="M26.5068 17.7383H7.88201C7.55145 17.7383 7.28316 17.4706 7.28316 17.1395C7.28316 16.8083 7.55145 16.5406 7.88201 16.5406H26.5074C26.8379 16.5406 27.1062 16.8083 27.1062 17.1395C27.1062 17.4706 26.8373 17.7383 26.5068 17.7383Z" fill="black"/>
</svg>
