<svg width="13" height="12" viewBox="0 0 13 12" fill="none" xmlns="http://www.w3.org/2000/svg">
<g id="Group 99">
<g id="Group 98">
<path id="Vector" d="M5.15299 11.3804C5.43859 11.3804 5.67012 11.1489 5.67012 10.8633C5.67012 10.5777 5.43859 10.3462 5.15299 10.3462C4.86739 10.3462 4.63586 10.5777 4.63586 10.8633C4.63586 11.1489 4.86739 11.3804 5.15299 11.3804Z" stroke="#404040" stroke-width="1.03012" stroke-linecap="round" stroke-linejoin="round"/>
<path id="Vector_2" d="M10.8409 11.3804C11.1265 11.3804 11.358 11.1489 11.358 10.8633C11.358 10.5777 11.1265 10.3462 10.8409 10.3462C10.5553 10.3462 10.3238 10.5777 10.3238 10.8633C10.3238 11.1489 10.5553 11.3804 10.8409 11.3804Z" stroke="#404040" stroke-width="1.03012" stroke-linecap="round" stroke-linejoin="round"/>
<path id="Vector_3" d="M1.01532 0.520508H3.08383L4.46974 7.44486C4.51703 7.68294 4.64655 7.89681 4.83563 8.04902C5.02471 8.20123 5.26131 8.28208 5.504 8.27743H10.5305C10.7732 8.28208 11.0098 8.20123 11.1988 8.04902C11.3879 7.89681 11.5175 7.68294 11.5647 7.44486L12.3921 3.10615H3.60096" stroke="#404040" stroke-width="1.03012" stroke-linecap="round" stroke-linejoin="round"/>
</g>
</g>
</svg>
