<svg width="24" height="25" viewBox="0 0 24 25" fill="none" xmlns="http://www.w3.org/2000/svg">
<g id="icons/transfer" clip-path="url(#clip0_1_993)">
<path id="Vector" d="M1.99951 4.20057C1.99951 1.99107 6.47701 0.200073 12 0.200073C17.523 0.200073 22.0005 1.99107 22.0005 4.20057V6.20007C22.0005 8.40957 17.523 10.2006 12 10.2006C6.47701 10.2006 1.99951 8.40957 1.99951 6.20007V4.20057Z" fill="currentColor"/>
<path id="Vector_2" d="M1.99951 9.70105V14.201C1.99951 16.4075 6.47701 18.2001 12 18.2001C17.523 18.2001 22.0005 16.4091 22.0005 14.1996V9.70105C21.325 10.1877 20.59 10.5859 19.8135 10.886C17.715 11.726 14.9505 12.2 12 12.2C9.05101 12.2 6.28651 11.7246 4.18801 10.886C3.41146 10.5859 2.6765 10.1877 2.00101 9.70105H1.99951Z" fill="currentColor"/>
<path id="Vector_3" d="M22.0005 17.7021C21.3249 18.1882 20.59 18.5859 19.8135 18.8856C17.7135 19.7256 14.9505 20.1996 11.9985 20.1996C9.04951 20.1996 6.28501 19.7256 4.18651 18.8856C3.40998 18.5854 2.67502 18.1872 1.99951 17.7006V20.1996C1.99951 22.4091 6.47701 24.2001 12 24.2001C17.523 24.2001 22.0005 22.4091 22.0005 20.1996V17.7021Z" fill="currentColor"/>
</g>
<defs>
<clipPath id="clip0_1_993">
<rect width="24" height="24" fill="white" transform="translate(0 0.200073)"/>
</clipPath>
</defs>
</svg>
