<svg width="36" height="36" viewBox="0 0 36 36" fill="none" xmlns="http://www.w3.org/2000/svg">
<g id="maki:mountain-15">
<path id="Vector" d="M17.915 4.89075C17.215 4.89075 16.9817 5.35741 16.515 5.82408L2.9817 27.9907C2.74837 28.2241 2.74837 28.6907 2.74837 28.9241C2.74837 30.0907 3.6817 30.5574 4.3817 30.5574H31.4484C32.3817 30.5574 33.0817 30.0907 33.0817 28.9241C33.0817 28.4574 33.0817 28.4574 32.8484 27.9907L19.5484 5.82408C19.0817 5.35741 18.615 4.89075 17.915 4.89075ZM17.915 8.39075L25.615 21.2241H23.7484L20.2484 17.7241L17.915 21.2241L15.5817 17.7241L12.0817 21.2241H9.9817L17.915 8.39075Z" fill="url(#paint0_linear_1_229)"/>
</g>
<defs>
<linearGradient id="paint0_linear_1_229" x1="17.915" y1="4.89075" x2="17.915" y2="30.5574" gradientUnits="userSpaceOnUse">
<stop stop-color="#7CB4F9"/>
<stop offset="1" stop-color="#6DA2E4"/>
</linearGradient>
</defs>
</svg>
