<svg width="36" height="36" viewBox="0 0 36 36" fill="none" xmlns="http://www.w3.org/2000/svg">
<g id="maki:mountain-15">
<path id="Vector" d="M31.9613 17.0549C30.6275 11.0245 28.62 7.80584 25.6422 6.92665C25.0163 6.74304 24.367 6.65132 23.7147 6.65434C22.8525 6.65434 22.1016 6.86439 21.3073 7.08702C20.3501 7.35555 19.2628 7.66056 17.6773 7.66056C16.0919 7.66056 15.0039 7.35618 14.0449 7.08764C13.2499 6.86439 12.4997 6.65434 11.64 6.65434C10.9655 6.652 10.2939 6.74344 9.64452 6.92602C6.68244 7.80144 4.67628 11.0188 3.3229 17.0512C1.86765 23.5426 2.58396 27.6411 5.33158 28.5919C5.70821 28.7247 6.10449 28.7932 6.50383 28.7944C8.38611 28.7944 9.89544 27.2266 10.9268 25.9431C12.0922 24.4903 13.4562 23.7533 17.6773 23.7533C21.4475 23.7533 23.0078 24.2645 24.3555 25.9431C25.2027 26.9983 26.0032 27.7367 26.8019 28.2014C27.8641 28.819 28.9257 28.9561 29.9564 28.602C31.5802 28.048 32.511 26.5833 32.7236 24.2476C32.8852 22.4565 32.6361 20.1038 31.9613 17.0549ZM14.6587 16.7166H12.6462V18.729C12.6462 18.9959 12.5402 19.2519 12.3515 19.4406C12.1628 19.6293 11.9069 19.7353 11.64 19.7353C11.3731 19.7353 11.1172 19.6293 10.9285 19.4406C10.7398 19.2519 10.6338 18.9959 10.6338 18.729V16.7166H8.62131C8.35444 16.7166 8.09851 16.6106 7.9098 16.4219C7.7211 16.2332 7.61509 15.9772 7.61509 15.7104C7.61509 15.4435 7.7211 15.1876 7.9098 14.9989C8.09851 14.8102 8.35444 14.7041 8.62131 14.7041H10.6338V12.6917C10.6338 12.4248 10.7398 12.1689 10.9285 11.9802C11.1172 11.7915 11.3731 11.6855 11.64 11.6855C11.9069 11.6855 12.1628 11.7915 12.3515 11.9802C12.5402 12.1689 12.6462 12.4248 12.6462 12.6917V14.7041H14.6587C14.9255 14.7041 15.1815 14.8102 15.3702 14.9989C15.5589 15.1876 15.6649 15.4435 15.6649 15.7104C15.6649 15.9772 15.5589 16.2332 15.3702 16.4219C15.1815 16.6106 14.9255 16.7166 14.6587 16.7166ZM19.9413 16.9682C19.6926 16.9682 19.4494 16.8944 19.2426 16.7562C19.0357 16.618 18.8745 16.4215 18.7793 16.1917C18.6841 15.9619 18.6592 15.709 18.7077 15.465C18.7563 15.221 18.8761 14.9969 19.052 14.821C19.2279 14.6451 19.452 14.5253 19.696 14.4768C19.94 14.4282 20.1929 14.4531 20.4227 14.5483C20.6525 14.6435 20.8489 14.8047 20.9872 15.0116C21.1254 15.2184 21.1991 15.4616 21.1991 15.7104C21.1991 16.044 21.0666 16.3639 20.8307 16.5998C20.5949 16.8356 20.2749 16.9682 19.9413 16.9682ZM22.7085 19.7353C22.4596 19.7353 22.2163 19.6614 22.0094 19.5231C21.8024 19.3847 21.6412 19.1881 21.5461 18.9581C21.451 18.7281 21.4263 18.475 21.4751 18.2309C21.5239 17.9869 21.644 17.7628 21.8202 17.587C21.9964 17.4112 22.2208 17.2917 22.465 17.2435C22.7092 17.1953 22.9622 17.2207 23.192 17.3164C23.4218 17.412 23.618 17.5737 23.7558 17.781C23.8936 17.9882 23.9669 18.2317 23.9663 18.4806C23.9654 18.8137 23.8325 19.1328 23.5967 19.368C23.361 19.6032 23.0415 19.7353 22.7085 19.7353ZM22.7085 14.201C22.4597 14.201 22.2165 14.1273 22.0097 13.9891C21.8028 13.8508 21.6416 13.6544 21.5464 13.4246C21.4512 13.1948 21.4263 12.9419 21.4749 12.6979C21.5234 12.4539 21.6432 12.2298 21.8191 12.0539C21.995 11.878 22.2191 11.7582 22.4631 11.7096C22.7071 11.6611 22.96 11.686 23.1898 11.7812C23.4196 11.8764 23.6161 12.0376 23.7543 12.2445C23.8925 12.4513 23.9663 12.6945 23.9663 12.9432C23.9663 13.2768 23.8337 13.5968 23.5979 13.8326C23.362 14.0685 23.0421 14.201 22.7085 14.201ZM25.4756 16.9682C25.2268 16.9682 24.9836 16.8944 24.7768 16.7562C24.57 16.618 24.4087 16.4215 24.3136 16.1917C24.2184 15.9619 24.1934 15.709 24.242 15.465C24.2905 15.221 24.4103 14.9969 24.5862 14.821C24.7621 14.6451 24.9862 14.5253 25.2302 14.4768C25.4742 14.4282 25.7271 14.4531 25.9569 14.5483C26.1868 14.6435 26.3832 14.8047 26.5214 15.0116C26.6596 15.2184 26.7334 15.4616 26.7334 15.7104C26.7334 16.044 26.6009 16.3639 26.365 16.5998C26.1291 16.8356 25.8092 16.9682 25.4756 16.9682Z" fill="url(#paint0_linear_1_279)"/>
</g>
<defs>
<linearGradient id="paint0_linear_1_279" x1="17.6786" y1="6.65427" x2="17.6786" y2="28.7944" gradientUnits="userSpaceOnUse">
<stop stop-color="#22B04A"/>
<stop offset="1" stop-color="#1E9540"/>
</linearGradient>
</defs>
</svg>
